<svg version="1.0" xmlns="http://www.w3.org/2000/svg" width="346.667" height="346.667" viewBox="0 0 260 260"><path d="M38.5 26.1c-7.7 1.8-14.8 8.8-17.4 16.9-1.3 4.3-.3 14.2 2 18.7C27 69.2 36.7 75 45.6 75c3.8 0 10.4-2.1 9.8-3.1-.3-.5.2-.6 1-.3 1 .4 3.2-1.1 6.1-4.1 17.5-18.4.8-47.3-24-41.4zm77 .8c-12.2 5.8-17.8 17.8-14.1 30.4 1.8 6.1 6.9 12.3 12.5 15.2 4.5 2.3 14.2 2.7 19.3.9 8.8-3.1 15.2-10.8 16.4-19.7.7-5.2-.3-12-1.6-11.2-.6.3-.7-.1-.4-1 .7-1.6-1.5-5.6-5-9.1-6.4-6.6-19.3-9.2-27.1-5.5zm81.3-.5c-11 4.1-16.9 12.9-16.4 24.7.9 25.4 35.1 33 46.9 10.4 2.8-5.5 3.2-15.6.8-21-2.5-5.7-6.7-10.2-11.4-12.7-5.2-2.6-14.9-3.3-19.9-1.4zM39.5 105.6c-14.4 3.7-22.3 17.4-18.1 31.7 2.7 9.4 10.8 16.1 20.8 17.3 10.2 1.2 20.5-4.4 25.3-13.7 5.9-11.2.4-27.3-11.4-33.4-3.2-1.6-13.2-2.8-16.6-1.9zm77.3 1c-4.1 1.2-8.9 4.9-12.4 9.5-.6.8-1.9 3.6-2.9 6.2-3.5 9.3.1 21.2 8.4 27.2 17.6 12.8 40.9.4 39.6-21.1-.4-8-1.2-9.8-3.4-8.2-1.4 1.2-1.5 1.1-.2-.5 1.5-1.9 1-2.9-4.3-8-6-5.8-16.1-7.9-24.8-5.1zm79.8-.2c-5.7 2.2-10.8 6.7-13.8 12.5-5.5 10.5-2.2 24.2 7.4 31.1 11.7 8.5 27.4 5.7 35.5-6.3 7.9-11.7 4.3-27.6-8.1-35.1-5.7-3.6-14.7-4.5-21-2.2zm-159.3 80c-15.6 4.9-22 24-12.6 37.8 1.4 2.1 3 3.5 3.6 3.1.5-.3.7-.1.4.5-1 1.5 8 6.5 10.9 5.9 1.4-.2 2.1 0 1.7.6-1 1.6 10 .1 14.3-1.9 15-7.2 18.8-27.6 7.4-39.5-3.3-3.5-10.6-7.3-12.6-6.5-.8.3-1.3.2-1-.3.8-1.3-7.5-1.1-12.1.3zm79.4 0c-9 3.3-15.4 11.5-16.4 20.8-1.4 14.3 8.4 26.2 22.6 27.5 6.8.6 11.3-.6 17-4.7 7.9-5.7 11.8-17.1 9.2-26.7-1.6-5.7-6.8-12.3-12-15.2-5.3-2.9-15-3.8-20.4-1.7zm77.5 1.2c-9.5 4.7-14.3 12.8-13.8 23.5.8 23.1 30.3 32.5 44.3 14.1 15.8-20.8-7.2-49.2-30.5-37.6z"/></svg>